<?xml version="1.0" encoding="utf-8"?>
<!-- Generator: Adobe Illustrator 21.0.0, SVG Export Plug-In . SVG Version: 6.00 Build 0)  -->
<svg version="1.1" id="Layer_1" xmlns="http://www.w3.org/2000/svg" xmlns:xlink="http://www.w3.org/1999/xlink" x="0px" y="0px"
	 viewBox="0 0 50 50" style="enable-background:new 0 0 50 50;" xml:space="preserve">
<style type="text/css">
	.st0{fill:#FFFFFF;stroke:#FFFFFF;stroke-miterlimit:10;}
</style>
<g id="surface1">
	<path class="st0" d="M7,2C4.2,2,2,4.2,2,7v27c0,2.8,2.2,5,5,5h27c2.8,0,5-2.2,5-5V7c0-2.8-2.2-5-5-5H7z M7,4h27c1.7,0,3,1.3,3,3v27
		c0,1.7-1.3,3-3,3H7c-1.7,0-3-1.3-3-3V7C4,5.3,5.3,4,7,4z M41,11v2h2c1.7,0,3,1.3,3,3v27c0,1.7-1.3,3-3,3H16c-1.7,0-3-1.3-3-3v-2h-2
		v2c0,2.8,2.2,5,5,5h27c2.8,0,5-2.2,5-5V16c0-2.8-2.2-5-5-5H41z"/>
</g>
</svg>
